<svg width="34" height="34" viewBox="0 0 34 34" fill="none" xmlns="http://www.w3.org/2000/svg">
<path d="M12.5114 30.1571V25.557C12.5114 24.387 13.5154 23.4362 14.7595 23.4284H19.3165C20.5664 23.4284 21.5797 24.3814 21.5797 25.557V30.1714C21.5795 31.1648 22.4225 31.9767 23.4785 32H26.5165C29.5449 32 32 29.691 32 26.8427V13.7568C31.9838 12.6362 31.4244 11.584 30.481 10.8995L20.0911 3.02795C18.271 1.65735 15.6835 1.65735 13.8633 3.02795L3.51899 10.9138C2.57199 11.5955 2.01166 12.6495 2 13.771V26.8427C2 29.691 4.45507 32 7.48354 32H10.5215C11.6037 32 12.481 31.1749 12.481 30.1571" stroke="#D0D0D0" stroke-width="3" stroke-linecap="round" stroke-linejoin="round"/>
</svg>
