<svg width="335" height="119" viewBox="0 0 335 119" fill="none" xmlns="http://www.w3.org/2000/svg">
<mask id="path-1-inside-1_351_427" fill="white">
<path d="M0 113.509H164.473V115.826V118.142H0V113.509Z"/>
</mask>
<path d="M0 113.509H164.473V115.826V118.142H0V113.509Z" fill="white"/>
<path d="M0 113.509V-25.4817H-138.991V113.509H0ZM164.473 113.509H303.464V-25.4817H164.473V113.509ZM164.473 118.142V257.133H303.464V118.142H164.473ZM0 118.142H-138.991V257.133H0V118.142ZM0 252.5H164.473V-25.4817H0V252.5ZM164.473 -20.8486H0V257.133H164.473V-20.8486ZM138.991 118.142V113.509H-138.991V118.142H138.991ZM25.4817 113.509V115.826H303.464V113.509H25.4817ZM25.4817 115.826V118.142H303.464V115.826H25.4817Z" fill="#71736E" mask="url(#path-1-inside-1_351_427)"/>
<mask id="path-3-inside-2_351_427" fill="white">
<path d="M0 0H324V2.5V5H0V0Z"/>
</mask>
<path d="M0 0H324V2.5V5H0V0Z" fill="white"/>
<path d="M0 0V-138.991H-138.991V0H0ZM324 0H462.991V-138.991H324V0ZM324 5V143.991H462.991V5H324ZM0 5H-138.991V143.991H0V5ZM0 138.991H324V-138.991H0V138.991ZM324 -133.991H0V143.991H324V-133.991ZM138.991 5V0H-138.991V5H138.991ZM185.009 0V2.5H462.991V0H185.009ZM185.009 2.5V5H462.991V2.5H185.009Z" fill="#71736E" mask="url(#path-3-inside-2_351_427)"/>
<path d="M163.314 93.5421L164.473 93.8189H165.631L166.697 93.8305L167.999 93.4873V93.5421L167.948 118.142H165.631H163.314V93.5421Z" fill="#71736E"/>
<path d="M321 0H326V12.5V25H321V12.5V0Z" fill="#71736E"/>
<path d="M0 2.31652H4.63303V118.142H0V60.2295V2.31652Z" fill="#71736E"/>
<g filter="url(#filter0_i_351_427)">
<path d="M89.6203 38.1637L80.7523 46.6244C74.7198 40.26 67.9331 37.0778 60.3923 37.0778C54.0279 37.0778 48.6589 39.2496 44.2853 43.593C39.9418 47.9365 37.7701 53.2904 37.7701 59.6548C37.7701 64.0888 38.7353 68.0251 40.6657 71.4636C42.5962 74.9022 45.3259 77.6018 48.855 79.5624C52.3841 81.523 56.3052 82.5033 60.6186 82.5033C64.2984 82.5033 67.6616 81.8246 70.7081 80.4673C73.7545 79.0798 77.1026 76.5763 80.7523 72.9567L89.3488 81.9151C84.4322 86.711 79.7871 90.044 75.4135 91.9141C71.0399 93.7541 66.0479 94.674 60.4376 94.674C50.0917 94.674 41.6159 91.4014 35.0102 84.856C28.4347 78.2805 25.1469 69.865 25.1469 59.6096C25.1469 52.9737 26.64 47.0769 29.6261 41.919C32.6424 36.7611 36.9406 32.6137 42.5208 29.4768C48.1311 26.3398 54.1637 24.7713 60.6186 24.7713C66.1082 24.7713 71.3867 25.9326 76.4541 28.2552C81.5517 30.5777 85.9404 33.8806 89.6203 38.1637ZM122.513 42.5072C127.158 42.5072 131.517 43.6684 135.589 45.991C139.691 48.3135 142.888 51.4656 145.18 55.4471C147.473 59.4286 148.619 63.7268 148.619 68.3418C148.619 72.9869 147.458 77.3303 145.135 81.3722C142.843 85.414 139.706 88.5811 135.724 90.8735C131.743 93.1357 127.354 94.2668 122.558 94.2668C115.5 94.2668 109.468 91.7633 104.46 86.7563C99.4836 81.719 96.9951 75.611 96.9951 68.4323C96.9951 60.7407 99.8153 54.3311 105.456 49.2033C110.403 44.7392 116.088 42.5072 122.513 42.5072ZM122.694 54.135C118.863 54.135 115.666 55.4772 113.102 58.1618C110.568 60.8161 109.302 64.2245 109.302 68.387C109.302 72.6701 110.553 76.1389 113.057 78.7932C115.591 81.4476 118.788 82.7747 122.649 82.7747C126.51 82.7747 129.722 81.4325 132.286 78.748C134.85 76.0635 136.132 72.6098 136.132 68.387C136.132 64.1642 134.865 60.7407 132.331 58.1165C129.828 55.4622 126.615 54.135 122.694 54.135ZM165.495 80.1053C167.456 80.1053 169.13 80.7991 170.517 82.1866C171.905 83.5439 172.599 85.2029 172.599 87.1635C172.599 89.1241 171.905 90.7981 170.517 92.1856C169.13 93.5731 167.456 94.2668 165.495 94.2668C163.535 94.2668 161.861 93.5731 160.473 92.1856C159.086 90.7981 158.392 89.1241 158.392 87.1635C158.392 85.2029 159.086 83.5439 160.473 82.1866C161.861 80.7991 163.535 80.1053 165.495 80.1053ZM247.523 37.3041L238.61 46.1267C232.97 40.1545 226.394 37.1683 218.884 37.1683C212.338 37.1683 206.849 39.3401 202.415 43.6835C198.011 48.027 195.809 53.3055 195.809 59.5191C195.809 65.9438 198.101 71.3882 202.686 75.8523C207.271 80.3165 212.927 82.5485 219.653 82.5485C224.027 82.5485 227.706 81.6286 230.693 79.7886C233.709 77.9487 236.137 75.0681 237.977 71.1469H218.703V59.2476H252.184L252.274 62.0528C252.274 67.8742 250.766 73.3941 247.75 78.6123C244.733 83.8305 240.827 87.812 236.031 90.5568C231.235 93.3016 225.61 94.674 219.155 94.674C212.248 94.674 206.08 93.181 200.65 90.1948C195.251 87.1785 190.968 82.8954 187.801 77.3454C184.664 71.7954 183.095 65.8081 183.095 59.3834C183.095 50.5758 186.006 42.9144 191.828 36.3992C198.735 28.6473 207.723 24.7713 218.793 24.7713C224.585 24.7713 229.999 25.8421 235.036 27.9837C239.289 29.7935 243.451 32.9003 247.523 37.3041ZM262.499 43.774H274.987V67.4821C274.987 72.0971 275.304 75.3094 275.937 77.1192C276.57 78.8988 277.581 80.2863 278.968 81.2817C280.386 82.2771 282.12 82.7747 284.171 82.7747C286.223 82.7747 287.957 82.2921 289.375 81.3269C290.822 80.3315 291.893 78.8837 292.587 76.9835C293.1 75.5658 293.356 72.5344 293.356 67.8893V43.774H305.753V64.6317C305.753 73.2282 305.074 79.1099 303.717 82.2771C302.058 86.1379 299.615 89.109 296.388 91.1902C293.16 93.2413 289.058 94.2668 284.081 94.2668C278.682 94.2668 274.308 93.0603 270.96 90.6473C267.642 88.2342 265.305 84.8711 263.947 80.5578C262.982 77.5716 262.499 72.1423 262.499 64.2698V43.774ZM323.036 23.5045C325.208 23.5045 327.063 24.2887 328.602 25.8572C330.17 27.4257 330.954 29.3259 330.954 31.558C330.954 33.7599 330.185 35.6451 328.647 37.2136C327.108 38.7519 325.269 39.521 323.127 39.521C320.925 39.521 319.04 38.7368 317.471 37.1683C315.933 35.5697 315.164 33.6393 315.164 31.377C315.164 29.2053 315.933 27.3503 317.471 25.812C319.01 24.2736 320.865 23.5045 323.036 23.5045ZM316.838 43.774H329.235V93H316.838V43.774Z" fill="white"/>
</g>
<defs>
<filter id="filter0_i_351_427" x="25.1469" y="23.5045" width="305.807" height="75.8026" filterUnits="userSpaceOnUse" color-interpolation-filters="sRGB">
<feFlood flood-opacity="0" result="BackgroundImageFix"/>
<feBlend mode="normal" in="SourceGraphic" in2="BackgroundImageFix" result="shape"/>
<feColorMatrix in="SourceAlpha" type="matrix" values="0 0 0 0 0 0 0 0 0 0 0 0 0 0 0 0 0 0 127 0" result="hardAlpha"/>
<feOffset dy="4.63303"/>
<feGaussianBlur stdDeviation="4.63303"/>
<feComposite in2="hardAlpha" operator="arithmetic" k2="-1" k3="1"/>
<feColorMatrix type="matrix" values="0 0 0 0 0 0 0 0 0 0 0 0 0 0 0 0 0 0 0.5 0"/>
<feBlend mode="normal" in2="shape" result="effect1_innerShadow_351_427"/>
</filter>
</defs>
</svg>
