<svg width="130" height="129" viewBox="0 0 130 129" fill="none" xmlns="http://www.w3.org/2000/svg">
<g filter="url(#filter0_d_251_2)">
<circle cx="61.0149" cy="60.355" r="44.2" fill="url(#paint0_linear_251_2)"/>
</g>
<path d="M55.6217 57.5961C55.2476 56.8756 54.728 56.3351 54.0628 55.9748C53.3977 55.6007 52.6286 55.4136 51.7556 55.4136C50.7995 55.4136 49.9473 55.6284 49.199 56.058C48.4507 56.4876 47.8618 57.0973 47.4322 57.8871C47.0165 58.677 46.8086 59.5915 46.8086 60.6308C46.8086 61.6701 47.0165 62.5916 47.4322 63.3953C47.8618 64.1852 48.4507 64.7949 49.199 65.2244C49.9473 65.654 50.7995 65.8688 51.7556 65.8688C53.0443 65.8688 54.0905 65.5085 54.8943 64.788C55.698 64.0674 56.1899 63.0905 56.37 61.8572H50.945V59.9657H58.9059V61.8156C58.7535 62.938 58.3516 63.9704 57.7003 64.9127C57.0629 65.8549 56.2245 66.6102 55.1853 67.1783C54.1598 67.7326 53.0166 68.0097 51.7556 68.0097C50.3976 68.0097 49.1574 67.6979 48.035 67.0744C46.9126 66.4369 46.0188 65.557 45.3537 64.4346C44.7024 63.3122 44.3767 62.0442 44.3767 60.6308C44.3767 59.2174 44.7024 57.9495 45.3537 56.8271C46.0188 55.7046 46.9126 54.8316 48.035 54.2081C49.1713 53.5706 50.4115 53.2519 51.7556 53.2519C53.2938 53.2519 54.6587 53.633 55.8504 54.3951C57.056 55.1434 57.929 56.2104 58.4694 57.5961H55.6217ZM69.9106 68.0305C68.5664 68.0305 67.3262 67.7187 66.1899 67.0952C65.0675 66.4577 64.1737 65.5778 63.5086 64.4554C62.8573 63.3191 62.5317 62.0442 62.5317 60.6308C62.5317 59.2174 62.8573 57.9495 63.5086 56.8271C64.1737 55.7046 65.0675 54.8316 66.1899 54.2081C67.3262 53.5706 68.5664 53.2519 69.9106 53.2519C71.2686 53.2519 72.5088 53.5706 73.6312 54.2081C74.7675 54.8316 75.6613 55.7046 76.3125 56.8271C76.9638 57.9495 77.2895 59.2174 77.2895 60.6308C77.2895 62.0442 76.9638 63.3191 76.3125 64.4554C75.6613 65.5778 74.7675 66.4577 73.6312 67.0952C72.5088 67.7187 71.2686 68.0305 69.9106 68.0305ZM69.9106 65.9727C70.8667 65.9727 71.7189 65.7579 72.4672 65.3284C73.2155 64.885 73.7975 64.2614 74.2132 63.4577C74.6428 62.6401 74.8575 61.6978 74.8575 60.6308C74.8575 59.5638 74.6428 58.6285 74.2132 57.8248C73.7975 57.0211 73.2155 56.4044 72.4672 55.9748C71.7189 55.5453 70.8667 55.3305 69.9106 55.3305C68.9544 55.3305 68.1022 55.5453 67.3539 55.9748C66.6057 56.4044 66.0167 57.0211 65.5872 57.8248C65.1714 58.6285 64.9636 59.5638 64.9636 60.6308C64.9636 61.6978 65.1714 62.6401 65.5872 63.4577C66.0167 64.2614 66.6057 64.885 67.3539 65.3284C68.1022 65.7579 68.9544 65.9727 69.9106 65.9727Z" fill="white"/>
<defs>
<filter id="filter0_d_251_2" x="0.814941" y="0.155029" width="128.4" height="128.4" filterUnits="userSpaceOnUse" color-interpolation-filters="sRGB">
<feFlood flood-opacity="0" result="BackgroundImageFix"/>
<feColorMatrix in="SourceAlpha" type="matrix" values="0 0 0 0 0 0 0 0 0 0 0 0 0 0 0 0 0 0 127 0" result="hardAlpha"/>
<feOffset dx="4" dy="4"/>
<feGaussianBlur stdDeviation="10"/>
<feComposite in2="hardAlpha" operator="out"/>
<feColorMatrix type="matrix" values="0 0 0 0 0.996078 0 0 0 0 0.647059 0 0 0 0 0.447059 0 0 0 0.4 0"/>
<feBlend mode="normal" in2="BackgroundImageFix" result="effect1_dropShadow_251_2"/>
<feBlend mode="normal" in="SourceGraphic" in2="effect1_dropShadow_251_2" result="shape"/>
</filter>
<linearGradient id="paint0_linear_251_2" x1="53.8324" y1="42.675" x2="20.6824" y2="104.555" gradientUnits="userSpaceOnUse">
<stop stop-color="#FE495A"/>
<stop offset="0.814236" stop-color="#FFB877"/>
</linearGradient>
</defs>
</svg>
