<svg width="181" height="177" viewBox="0 0 181 177" fill="none" xmlns="http://www.w3.org/2000/svg">
<g filter="url(#filter0_d_439_99)">
<ellipse cx="96.1845" cy="88.5001" rx="70.1845" ry="68.5001" fill="url(#paint0_linear_439_99)" shape-rendering="crispEdges"/>
</g>
<g filter="url(#filter1_dd_439_99)">
<path d="M102.858 33.4614C116.407 35.1677 128.89 41.5262 138.073 51.3979C147.255 61.2697 152.537 74.0097 152.971 87.336C153.405 100.662 148.964 113.704 140.443 124.125C131.922 134.547 119.877 141.667 106.467 144.21C93.0573 146.753 79.1576 144.553 67.258 138.004C55.3585 131.456 46.2366 120.986 41.5262 108.47C36.8159 95.9551 36.8249 82.2118 41.5516 69.7023C46.2783 57.1928 55.4139 46.7344 67.322 40.2006L68.1298 41.603C56.5631 47.9495 47.6894 58.1081 43.0982 70.2589C38.507 82.4098 38.4982 95.7591 43.0735 107.916C47.6488 120.072 56.5093 130.242 68.0677 136.603C79.6261 142.964 93.1273 145.101 106.153 142.63C119.179 140.16 130.878 133.244 139.154 123.122C147.431 112.999 151.745 100.331 151.323 87.3871C150.902 74.4429 145.772 62.0681 136.852 52.4793C127.933 42.8906 115.808 36.7144 102.647 35.057L102.858 33.4614Z" fill="url(#paint1_linear_439_99)"/>
</g>
<path d="M70.4255 38.6171C78.9877 34.5676 88.4458 32.6551 97.9517 33.051L97.8814 34.6584C88.648 34.2738 79.4611 36.1315 71.1443 40.0649L70.4255 38.6171Z" fill="#D9D9D9" fill-opacity="0.49"/>
<path d="M61.3395 91.5043C61.3395 85.5429 62.4832 80.8467 64.7707 77.4154C67.0929 73.9842 70.8187 72.2685 75.9483 72.2685C81.0778 72.2685 84.7863 73.9842 87.0738 77.4154C89.396 80.8467 90.557 85.5429 90.557 91.5043C90.557 97.535 89.396 102.266 87.0738 105.697C84.7863 109.128 81.0778 110.844 75.9483 110.844C70.8187 110.844 67.0929 109.128 64.7707 105.697C62.4832 102.266 61.3395 97.535 61.3395 91.5043ZM81.823 91.5043C81.823 88.0037 81.4417 85.3177 80.6792 83.4461C79.9167 81.5398 78.3397 80.5867 75.9483 80.5867C73.5568 80.5867 71.9798 81.5398 71.2173 83.4461C70.4548 85.3177 70.0736 88.0037 70.0736 91.5043C70.0736 93.8611 70.2122 95.8193 70.4895 97.379C70.7667 98.904 71.3213 100.152 72.1531 101.122C73.0196 102.058 74.2846 102.526 75.9483 102.526C77.6119 102.526 78.8596 102.058 79.6914 101.122C80.5579 100.152 81.1298 98.904 81.4071 97.379C81.6843 95.8193 81.823 93.8611 81.823 91.5043ZM124.575 80.7947H108.355V87.9691C109.048 87.2066 110.019 86.5827 111.266 86.0975C112.514 85.6123 113.866 85.3697 115.321 85.3697C117.921 85.3697 120.07 85.9589 121.768 87.1373C123.501 88.3157 124.766 89.8407 125.563 91.7123C126.36 93.5838 126.759 95.6114 126.759 97.7949C126.759 101.85 125.615 105.073 123.328 107.465C121.04 109.822 117.817 111 113.658 111C110.885 111 108.476 110.532 106.431 109.596C104.387 108.626 102.81 107.291 101.7 105.593C100.591 103.895 99.9848 101.937 99.8809 99.7185H108.563C108.771 100.793 109.273 101.694 110.071 102.422C110.868 103.115 111.96 103.462 113.346 103.462C114.975 103.462 116.188 102.942 116.985 101.902C117.782 100.862 118.181 99.4759 118.181 97.7429C118.181 96.0446 117.765 94.7449 116.933 93.8438C116.101 92.9427 114.888 92.4921 113.294 92.4921C112.115 92.4921 111.145 92.7867 110.383 93.3759C109.62 93.9304 109.117 94.6756 108.875 95.6114H100.297V72.9964H124.575V80.7947Z" fill="url(#paint2_linear_439_99)"/>
<defs>
<filter id="filter0_d_439_99" x="0.48" y="0" width="180.369" height="177" filterUnits="userSpaceOnUse" color-interpolation-filters="sRGB">
<feFlood flood-opacity="0" result="BackgroundImageFix"/>
<feColorMatrix in="SourceAlpha" type="matrix" values="0 0 0 0 0 0 0 0 0 0 0 0 0 0 0 0 0 0 127 0" result="hardAlpha"/>
<feOffset dx="-5.52"/>
<feGaussianBlur stdDeviation="10"/>
<feComposite in2="hardAlpha" operator="out"/>
<feColorMatrix type="matrix" values="0 0 0 0 0.490196 0 0 0 0 0.117647 0 0 0 0 0.976471 0 0 0 0.2 0"/>
<feBlend mode="normal" in2="BackgroundImageFix" result="effect1_dropShadow_439_99"/>
<feBlend mode="normal" in="SourceGraphic" in2="effect1_dropShadow_439_99" result="shape"/>
</filter>
<filter id="filter1_dd_439_99" x="14.3315" y="9.79289" width="155.578" height="152.357" filterUnits="userSpaceOnUse" color-interpolation-filters="sRGB">
<feFlood flood-opacity="0" result="BackgroundImageFix"/>
<feColorMatrix in="SourceAlpha" type="matrix" values="0 0 0 0 0 0 0 0 0 0 0 0 0 0 0 0 0 0 127 0" result="hardAlpha"/>
<feOffset dy="2.45333"/>
<feGaussianBlur stdDeviation="1.53333"/>
<feComposite in2="hardAlpha" operator="out"/>
<feColorMatrix type="matrix" values="0 0 0 0 0.321569 0 0 0 0 0 0 0 0 0 1 0 0 0 0.5 0"/>
<feBlend mode="normal" in2="BackgroundImageFix" result="effect1_dropShadow_439_99"/>
<feColorMatrix in="SourceAlpha" type="matrix" values="0 0 0 0 0 0 0 0 0 0 0 0 0 0 0 0 0 0 127 0" result="hardAlpha"/>
<feOffset dx="-3.37947" dy="-3.37947"/>
<feGaussianBlur stdDeviation="10.1445"/>
<feComposite in2="hardAlpha" operator="out"/>
<feColorMatrix type="matrix" values="0 0 0 0 0.779167 0 0 0 0 0.779167 0 0 0 0 0.779167 0 0 0 0.5 0"/>
<feBlend mode="normal" in2="effect1_dropShadow_439_99" result="effect2_dropShadow_439_99"/>
<feBlend mode="normal" in="SourceGraphic" in2="effect2_dropShadow_439_99" result="shape"/>
</filter>
<linearGradient id="paint0_linear_439_99" x1="87" y1="89" x2="157.5" y2="160" gradientUnits="userSpaceOnUse">
<stop stop-color="white"/>
<stop offset="0.892043" stop-color="#E6E6E6" stop-opacity="0"/>
</linearGradient>
<linearGradient id="paint1_linear_439_99" x1="95.5" y1="33" x2="95.5" y2="145.24" gradientUnits="userSpaceOnUse">
<stop stop-color="#5200FF"/>
<stop offset="1" stop-color="#A036F4"/>
</linearGradient>
<linearGradient id="paint2_linear_439_99" x1="95.5" y1="54" x2="95.5" y2="100" gradientUnits="userSpaceOnUse">
<stop stop-color="#7B1CF9"/>
<stop offset="1" stop-color="#9A31F5" stop-opacity="0.69"/>
</linearGradient>
</defs>
</svg>
