<svg width="181" height="177" viewBox="0 0 181 177" fill="none" xmlns="http://www.w3.org/2000/svg">
<g filter="url(#filter0_d_439_109)">
<ellipse cx="96.1845" cy="88.5001" rx="70.1845" ry="68.5001" fill="url(#paint0_linear_439_109)" shape-rendering="crispEdges"/>
</g>
<g filter="url(#filter1_dd_439_109)">
<path d="M102.858 33.4614C116.231 35.1456 128.572 41.363 137.725 51.0271C146.877 60.6912 152.259 73.1872 152.929 86.3311C153.599 99.475 149.515 112.431 141.391 122.934C133.266 133.437 121.619 140.819 108.483 143.791L108.111 142.223C120.87 139.337 132.184 132.166 140.075 121.964C147.967 111.762 151.933 99.1781 151.283 86.411C150.632 73.644 145.404 61.5062 136.514 52.1191C127.624 42.7321 115.637 36.6929 102.647 35.057L102.858 33.4614Z" fill="url(#paint1_linear_439_109)"/>
</g>
<path d="M101.515 144.932C93.7855 145.726 85.9711 144.981 78.5443 142.745C71.1175 140.508 64.2325 136.824 58.3052 131.917C52.3779 127.01 47.5315 120.981 44.0587 114.195C40.586 107.408 38.559 100.005 38.1002 92.4323C37.6415 84.8597 38.7605 77.2749 41.3897 70.1362C44.0189 62.9975 48.1037 56.4532 53.3972 50.8986C58.6907 45.3441 65.083 40.8946 72.188 37.8191C79.293 34.7436 86.9631 33.1059 94.7348 33.005L94.7567 34.6137C87.2078 34.7117 79.7576 36.3025 72.8563 39.2898C65.955 42.2772 59.7459 46.5991 54.6042 51.9944C49.4624 57.3897 45.4947 63.7464 42.9409 70.6804C40.3871 77.6144 39.3002 84.9818 39.7458 92.3374C40.1914 99.6929 42.1602 106.884 45.5334 113.476C48.9067 120.068 53.6141 125.924 59.3715 130.69C65.1288 135.457 71.8165 139.034 79.0304 141.207C86.2443 143.38 93.8346 144.103 101.343 143.332L101.515 144.932Z" fill="#D9D9D9" fill-opacity="0.49"/>
<path d="M61.3395 91.5043C61.3395 85.5429 62.4832 80.8467 64.7707 77.4154C67.0929 73.9842 70.8187 72.2685 75.9483 72.2685C81.0778 72.2685 84.7863 73.9842 87.0738 77.4154C89.396 80.8467 90.557 85.5429 90.557 91.5043C90.557 97.535 89.396 102.266 87.0738 105.697C84.7863 109.128 81.0778 110.844 75.9483 110.844C70.8187 110.844 67.0929 109.128 64.7707 105.697C62.4832 102.266 61.3395 97.535 61.3395 91.5043ZM81.823 91.5043C81.823 88.0037 81.4417 85.3177 80.6792 83.4461C79.9167 81.5398 78.3397 80.5867 75.9483 80.5867C73.5568 80.5867 71.9798 81.5398 71.2173 83.4461C70.4548 85.3177 70.0736 88.0037 70.0736 91.5043C70.0736 93.8611 70.2122 95.8193 70.4895 97.379C70.7667 98.904 71.3213 100.152 72.1531 101.122C73.0196 102.058 74.2846 102.526 75.9483 102.526C77.6119 102.526 78.8596 102.058 79.6914 101.122C80.5579 100.152 81.1298 98.904 81.4071 97.379C81.6843 95.8193 81.823 93.8611 81.823 91.5043ZM98.1652 83.758C98.3039 80.0495 99.5169 77.1901 101.804 75.1799C104.092 73.1697 107.194 72.1646 111.11 72.1646C113.71 72.1646 115.928 72.6151 117.765 73.5163C119.636 74.4174 121.04 75.6478 121.976 77.2075C122.946 78.7671 123.432 80.5174 123.432 82.4583C123.432 84.7458 122.86 86.6174 121.716 88.0731C120.572 89.4941 119.238 90.4645 117.713 90.9844V91.1924C119.688 91.8509 121.248 92.9427 122.392 94.4676C123.536 95.9926 124.108 97.9509 124.108 100.342C124.108 102.491 123.605 104.397 122.6 106.061C121.629 107.69 120.191 108.972 118.285 109.908C116.413 110.844 114.178 111.312 111.578 111.312C107.419 111.312 104.092 110.289 101.596 108.245C99.1357 106.2 97.836 103.115 97.6973 98.9907H106.327C106.362 100.516 106.795 101.729 107.627 102.63C108.459 103.496 109.672 103.93 111.266 103.93C112.618 103.93 113.658 103.548 114.386 102.786C115.148 101.989 115.529 100.949 115.529 99.6665C115.529 98.0029 114.992 96.8071 113.918 96.0793C112.878 95.3168 111.197 94.9355 108.875 94.9355H107.211V87.7091H108.875C110.642 87.7091 112.063 87.4145 113.138 86.8253C114.247 86.2015 114.802 85.1097 114.802 83.5501C114.802 82.3023 114.455 81.3319 113.762 80.6387C113.069 79.9455 112.115 79.5989 110.902 79.5989C109.585 79.5989 108.598 79.9975 107.939 80.7947C107.315 81.5918 106.951 82.5796 106.847 83.758H98.1652Z" fill="url(#paint2_linear_439_109)"/>
<defs>
<filter id="filter0_d_439_109" x="0.48" y="0" width="180.369" height="177" filterUnits="userSpaceOnUse" color-interpolation-filters="sRGB">
<feFlood flood-opacity="0" result="BackgroundImageFix"/>
<feColorMatrix in="SourceAlpha" type="matrix" values="0 0 0 0 0 0 0 0 0 0 0 0 0 0 0 0 0 0 127 0" result="hardAlpha"/>
<feOffset dx="-5.52"/>
<feGaussianBlur stdDeviation="10"/>
<feComposite in2="hardAlpha" operator="out"/>
<feColorMatrix type="matrix" values="0 0 0 0 0.490196 0 0 0 0 0.117647 0 0 0 0 0.976471 0 0 0 0.2 0"/>
<feBlend mode="normal" in2="BackgroundImageFix" result="effect1_dropShadow_439_109"/>
<feBlend mode="normal" in="SourceGraphic" in2="effect1_dropShadow_439_109" result="shape"/>
</filter>
<filter id="filter1_dd_439_109" x="78.9789" y="9.79289" width="90.9307" height="150.907" filterUnits="userSpaceOnUse" color-interpolation-filters="sRGB">
<feFlood flood-opacity="0" result="BackgroundImageFix"/>
<feColorMatrix in="SourceAlpha" type="matrix" values="0 0 0 0 0 0 0 0 0 0 0 0 0 0 0 0 0 0 127 0" result="hardAlpha"/>
<feOffset dy="2.45333"/>
<feGaussianBlur stdDeviation="1.53333"/>
<feComposite in2="hardAlpha" operator="out"/>
<feColorMatrix type="matrix" values="0 0 0 0 0.321569 0 0 0 0 0 0 0 0 0 1 0 0 0 0.5 0"/>
<feBlend mode="normal" in2="BackgroundImageFix" result="effect1_dropShadow_439_109"/>
<feColorMatrix in="SourceAlpha" type="matrix" values="0 0 0 0 0 0 0 0 0 0 0 0 0 0 0 0 0 0 127 0" result="hardAlpha"/>
<feOffset dx="-3.37947" dy="-3.37947"/>
<feGaussianBlur stdDeviation="10.1445"/>
<feComposite in2="hardAlpha" operator="out"/>
<feColorMatrix type="matrix" values="0 0 0 0 0.779167 0 0 0 0 0.779167 0 0 0 0 0.779167 0 0 0 0.5 0"/>
<feBlend mode="normal" in2="effect1_dropShadow_439_109" result="effect2_dropShadow_439_109"/>
<feBlend mode="normal" in="SourceGraphic" in2="effect2_dropShadow_439_109" result="shape"/>
</filter>
<linearGradient id="paint0_linear_439_109" x1="87" y1="89" x2="157.5" y2="160" gradientUnits="userSpaceOnUse">
<stop stop-color="white"/>
<stop offset="0.892043" stop-color="#E6E6E6" stop-opacity="0"/>
</linearGradient>
<linearGradient id="paint1_linear_439_109" x1="95.5" y1="33" x2="95.5" y2="145.24" gradientUnits="userSpaceOnUse">
<stop stop-color="#5200FF"/>
<stop offset="1" stop-color="#A036F4"/>
</linearGradient>
<linearGradient id="paint2_linear_439_109" x1="95.5" y1="54" x2="95.5" y2="100" gradientUnits="userSpaceOnUse">
<stop stop-color="#7B1CF9"/>
<stop offset="1" stop-color="#9A31F5" stop-opacity="0.69"/>
</linearGradient>
</defs>
</svg>
