<svg width="553" height="602" viewBox="0 0 553 602" fill="none" xmlns="http://www.w3.org/2000/svg">
<g filter="url(#filter0_f_443_2)">
<ellipse cx="272.744" cy="334.717" rx="234.744" ry="229.11" fill="url(#paint0_radial_443_2)"/>
<ellipse cx="272.744" cy="334.717" rx="234.744" ry="229.11" fill="url(#paint1_radial_443_2)"/>
<path d="M507.175 334.717C507.175 461.071 402.224 563.514 272.744 563.514C143.264 563.514 38.313 461.071 38.313 334.717C38.313 208.363 143.264 105.919 272.744 105.919C402.224 105.919 507.175 208.363 507.175 334.717Z" stroke="#F7F8FC" stroke-width="0.625984"/>
</g>
<g filter="url(#filter1_f_443_2)">
<ellipse cx="280.256" cy="267.11" rx="234.744" ry="229.11" fill="url(#paint2_radial_443_2)"/>
<ellipse cx="280.256" cy="267.11" rx="234.744" ry="229.11" fill="url(#paint3_radial_443_2)"/>
<path d="M514.687 267.11C514.687 393.464 409.736 495.907 280.256 495.907C150.776 495.907 45.8247 393.464 45.8247 267.11C45.8247 140.756 150.776 38.313 280.256 38.313C409.736 38.313 514.687 140.756 514.687 267.11Z" stroke="#F7F8FC" stroke-width="0.625984"/>
</g>
<path d="M510 292.15C510 415.808 407.255 516.26 280.256 516.26C153.256 516.26 50.5117 415.808 50.5117 292.15C50.5117 168.491 153.256 68.0393 280.256 68.0393C407.255 68.0393 510 168.491 510 292.15Z" fill="url(#paint4_radial_443_2)"/>
<path d="M510 292.15C510 415.808 407.255 516.26 280.256 516.26C153.256 516.26 50.5117 415.808 50.5117 292.15C50.5117 168.491 153.256 68.0393 280.256 68.0393C407.255 68.0393 510 168.491 510 292.15Z" fill="url(#paint5_radial_443_2)"/>
<path d="M510 292.15C510 415.808 407.255 516.26 280.256 516.26C153.256 516.26 50.5117 415.808 50.5117 292.15C50.5117 168.491 153.256 68.0393 280.256 68.0393C407.255 68.0393 510 168.491 510 292.15Z" stroke="#F3F3F3" stroke-width="10"/>
<defs>
<filter id="filter0_f_443_2" x="0.440945" y="68.0474" width="544.606" height="533.339" filterUnits="userSpaceOnUse" color-interpolation-filters="sRGB">
<feFlood flood-opacity="0" result="BackgroundImageFix"/>
<feBlend mode="normal" in="SourceGraphic" in2="BackgroundImageFix" result="shape"/>
<feGaussianBlur stdDeviation="18.7795" result="effect1_foregroundBlur_443_2"/>
</filter>
<filter id="filter1_f_443_2" x="7.95266" y="0.440945" width="544.606" height="533.339" filterUnits="userSpaceOnUse" color-interpolation-filters="sRGB">
<feFlood flood-opacity="0" result="BackgroundImageFix"/>
<feBlend mode="normal" in="SourceGraphic" in2="BackgroundImageFix" result="shape"/>
<feGaussianBlur stdDeviation="18.7795" result="effect1_foregroundBlur_443_2"/>
</filter>
<radialGradient id="paint0_radial_443_2" cx="0" cy="0" r="1" gradientUnits="userSpaceOnUse" gradientTransform="translate(183.228 173.839) rotate(64.2413) scale(417.725 427.997)">
<stop stop-color="#D2D2D2" stop-opacity="0.5"/>
<stop offset="0.98041" stop-color="#D2D2D2" stop-opacity="0.5"/>
</radialGradient>
<radialGradient id="paint1_radial_443_2" cx="0" cy="0" r="1" gradientUnits="userSpaceOnUse" gradientTransform="translate(148.799 149.425) rotate(61.6725) scale(455.132 466.324)">
<stop stop-color="white" stop-opacity="0.739583"/>
<stop offset="0.196725" stop-color="white" stop-opacity="0.375"/>
<stop offset="0.465278" stop-color="#F5F5F5" stop-opacity="0.42705"/>
<stop offset="0.915394" stop-color="#F4F4F4" stop-opacity="0.61"/>
<stop offset="0.98041" stop-color="white"/>
</radialGradient>
<radialGradient id="paint2_radial_443_2" cx="0" cy="0" r="1" gradientUnits="userSpaceOnUse" gradientTransform="translate(190.74 106.232) rotate(64.2413) scale(417.725 427.997)">
<stop stop-color="white"/>
<stop offset="0.98041" stop-color="white"/>
</radialGradient>
<radialGradient id="paint3_radial_443_2" cx="0" cy="0" r="1" gradientUnits="userSpaceOnUse" gradientTransform="translate(156.311 81.8189) rotate(61.6725) scale(455.132 466.324)">
<stop stop-color="white" stop-opacity="0.739583"/>
<stop offset="0.196725" stop-color="white" stop-opacity="0.375"/>
<stop offset="0.465278" stop-color="#F5F5F5" stop-opacity="0.42705"/>
<stop offset="0.915394" stop-color="#F4F4F4" stop-opacity="0.61"/>
<stop offset="0.98041" stop-color="white"/>
</radialGradient>
<radialGradient id="paint4_radial_443_2" cx="0" cy="0" r="1" gradientUnits="userSpaceOnUse" gradientTransform="translate(190.74 131.272) rotate(64.2413) scale(417.725 427.997)">
<stop stop-color="white" stop-opacity="0.739583"/>
<stop offset="0.333333" stop-color="#EBE9E9" stop-opacity="0.375"/>
<stop offset="0.621528" stop-color="#E8E8E8" stop-opacity="0.61"/>
<stop offset="0.98041" stop-color="white"/>
</radialGradient>
<radialGradient id="paint5_radial_443_2" cx="0" cy="0" r="1" gradientUnits="userSpaceOnUse" gradientTransform="translate(156.311 106.858) rotate(61.6725) scale(455.132 466.324)">
<stop stop-color="white" stop-opacity="0.739583"/>
<stop offset="0.196725" stop-color="white" stop-opacity="0.375"/>
<stop offset="0.465278" stop-color="#F5F5F5" stop-opacity="0.42705"/>
<stop offset="0.915394" stop-color="#F4F4F4" stop-opacity="0.61"/>
<stop offset="0.98041" stop-color="white"/>
</radialGradient>
</defs>
</svg>
